<?xml version="1.0" encoding="utf-8"?>
<svg width="1024px" height="838px" viewBox="0 0 1024 838" version="1.1" xmlns:xlink="http://www.w3.org/1999/xlink" xmlns="http://www.w3.org/2000/svg">
  <defs>
    <path d="M1024 0L1024 0L1024 838L0 838L0 0L1024 0Z" id="path_1" />
    <path d="M0 0L741.791 0L741.791 252L0 252L0 0Z" id="path_2" />
    <clipPath id="clip_1">
      <use xlink:href="#path_1" clip-rule="evenodd" fill-rule="evenodd" />
    </clipPath>
    <clipPath id="clip_2">
      <use xlink:href="#path_2" clip-rule="evenodd" fill-rule="evenodd" />
    </clipPath>
  </defs>
  <g id="2 Copy 3">
    <path d="M1024 0L1024 0L1024 838L0 838L0 0L1024 0Z" id="2-Copy-3" fill="none" stroke="none" />
    <g id="Group" transform="translate(51 43)" clip-path="url(#clip_1)">
      <path d="M646.86 105.599C638.36 99.1818 628.677 96.4081 620.276 94.0018C606.364 90.017 595.969 87.0395 600.29 70.1915C607.871 40.631 646.649 37.3401 663.759 35.684C680.869 34.0277 733.713 51.1332 733.713 51.1332L733.557 52.8092C779.926 40.9822 827.064 60.3919 827.064 60.3919L838.02 75.556L922.012 133.047C922.012 133.047 899.873 165.287 869.972 167.558C859.844 168.327 847.669 165.657 835.997 161.789C851.839 182.883 864.709 206.357 853.549 216.597C831.348 236.964 797.722 219.578 782.129 211.516L781.417 211.148C772.732 206.661 757.664 190.805 746.293 177.976C744.617 179.069 742.932 180.14 741.245 181.18C730.94 187.532 720.559 192.724 711.81 196.668C719.078 234.778 697.383 281.576 659.086 297.067C658.365 300.381 657.789 302.355 657.789 302.355L771.332 312.235L758.562 339.416L622.109 342.495L616.948 326.924C616.281 327.378 615.637 327.8 615.02 328.188C594.441 341.112 574.453 364.561 574.453 364.561L532.848 465.146L509.7 456.088L524.759 372.878L544.314 336.793C528.218 339.6 511.906 340.408 494.766 338.292C438.574 331.356 409.141 320.582 335.909 289.25L293.002 304.833C295.483 312.678 296.414 320.458 294.204 326.925C286.345 349.919 249.471 371.429 249.471 371.429L328.894 459.527L305.158 465.884L201.086 371.429L222.996 332.375L221.072 330.956L220.877 331.027C220.877 331.027 212.174 326.197 201.197 318.266C195.513 331.525 187.708 343.118 177.628 344.034C153.317 346.245 113.883 331.89 113.883 331.89L69.9744 429.505L54.4819 410.518C54.4819 410.518 89.9137 308.434 100.734 293.894C106.843 285.685 116.027 291.589 123.972 296.696C130.099 300.635 135.489 304.1 138.163 300.253C141.208 295.873 149.086 275.077 156.257 255.218C156.096 253.093 156.029 251.016 156.049 248.987C143.105 256.908 129.509 263.792 117.015 267.356C74.8926 279.374 26.5929 267.356 26.5929 267.356C26.5929 267.356 10.4528 265.478 1.98672 247.373C-6.47932 229.268 14.8516 198.323 14.8516 198.323C14.8516 198.323 -0.38508 232.75 18.4185 247.373C37.2231 261.996 65.7625 262.115 107.885 250.098C126.32 244.838 147.154 230.786 164.756 216.645C169.648 208.065 176.058 201.102 182.532 195.707C198.708 182.226 215.627 162.786 296.652 156.655C346.133 152.912 390.223 161.518 428.559 169.001C452.998 173.771 475.099 178.085 494.766 178.452C514.357 178.817 535.42 170.499 557.733 161.688C571.616 156.205 585.984 150.531 600.782 146.639C609.235 138.5 626.44 122.368 646.86 105.599Z" id="Rectangle-Copy-Union-2" fill="#000000" fill-rule="evenodd" stroke="none" />
      <path d="M31.2434 218.293C46.596 236.504 74.4856 242.554 118.185 239.559C161.884 236.562 227.377 191.274 227.377 191.274L231.018 218.046C231.018 218.046 167.227 255.34 123.527 258.336C79.8286 261.332 35.0843 239.537 35.0843 239.537C35.0843 239.537 19.6877 234.344 15.1714 214.877C10.6541 195.41 37.9513 169.581 37.9513 169.581C37.9513 169.581 15.8917 200.083 31.2434 218.293Z" id="Rectangle-3-Copy-2" fill="#000000" fill-opacity="0.49803922" fill-rule="evenodd" stroke="none" />
      <path d="M75.2347 169.021C83.0405 191.524 106.91 207.168 148.78 220.031C190.651 232.894 268.023 214.085 268.023 214.085L261.828 240.384C261.828 240.384 188.909 252.339 147.039 239.475C105.169 226.612 71.2075 190.23 71.2075 190.23C71.2075 190.23 58.6941 179.865 61.4536 160.072C64.2131 140.28 98.9529 125.948 98.9529 125.948C98.9529 125.948 67.4279 146.519 75.2347 169.021Z" id="Rectangle-3-Copy-4" fill="#000000" fill-opacity="0.49803922" fill-rule="evenodd" stroke="none" />
      <path d="M50.5346 192.793C62.4914 213.393 88.9066 224.194 132.462 228.832C176.017 233.47 248.379 200.243 248.379 200.243L247.317 227.241C247.317 227.241 178.018 252.89 134.462 248.252C90.9069 243.614 50.6277 214.381 50.6277 214.381C50.6277 214.381 36.3668 206.593 35.2986 186.638C34.2304 166.682 65.5987 145.985 65.5987 145.985C65.5987 145.985 38.5778 172.193 50.5346 192.793Z" id="Rectangle-3-Copy-3" fill="#000000" fill-opacity="0.49803922" fill-rule="evenodd" stroke="none" />
      <path d="M722.405 97.2899L683.914 114.475C683.914 114.475 659.565 122.623 644.147 93.1077C628.729 63.5923 588.896 66.5209 603.869 39.9307C618.843 13.3403 657.148 20.1979 674.104 23.0264C691.059 25.8547 737.674 56.0536 737.674 56.0536L722.405 97.2899Z" id="Rectangle-4-Copy-3" fill="#000000" fill-opacity="0.49803922" fill-rule="evenodd" stroke="none" />
      <path d="M719.998 93.136L678.775 101.943C678.775 101.943 653.263 104.85 644.319 72.7741C635.376 40.6984 595.804 35.281 615.977 12.3847C636.152 -10.5113 672.196 4.16073 688.193 10.4525C704.189 16.7445 743.506 55.9749 743.506 55.9749L719.998 93.136Z" id="Rectangle-4-Copy-4" fill="#000000" fill-opacity="0.49803922" fill-rule="evenodd" stroke="none" />
      <path d="M203.342 309.388L270.248 244.392C270.248 244.392 312.794 272.224 312.425 296.52C312.057 320.817 283.635 352.667 283.635 352.667L386.391 411.908L365.783 425.29L237.62 367.619L246.389 323.707L203.342 309.388Z" id="Rectangle-5-Copy-3" fill="#000000" fill-opacity="0.49803922" fill-rule="evenodd" stroke="none" />
      <path d="M210.58 307.238L267.789 233.563C267.789 233.563 313.795 255.202 316.811 279.313C319.827 303.425 296.115 338.921 296.115 338.921L406.116 383.285L387.57 399.403L252.628 360.131L255.202 315.426L210.58 307.238Z" id="Rectangle-5-Copy-4" fill="#000000" fill-opacity="0.49803922" fill-rule="evenodd" stroke="none" />
      <path d="M555.083 249.048L680.164 249.759C680.164 249.759 642.291 310.242 624.85 327.161C607.409 344.081 592.733 371.172 592.733 371.172L572.951 478.206L548.427 474.158L545.856 389.639L575.397 289.612L555.083 249.048Z" id="Rectangle-5-Copy-7" fill="#000000" fill-opacity="0.49803922" fill-rule="evenodd" stroke="none" />
      <path d="M559.155 291.513L610.895 214.277C610.895 214.277 658.41 232.785 663.182 256.616C667.954 280.448 652.858 309.727 652.858 309.727L762.426 341.089L744.706 365.333L610.178 342.32L604.305 296.707L559.155 291.513Z" id="Rectangle-5-Copy-10" fill="#000000" fill-opacity="0.49803922" fill-rule="evenodd" stroke="none" />
      <path d="M569.209 315.015L567.291 222.071C567.291 222.071 616.829 209.979 634.407 226.763C651.985 243.547 656.413 276.189 656.413 276.189L764.155 239.034L763.544 269.057L640.146 327.369L609.172 293.373L569.209 315.015Z" id="Rectangle-5-Copy-12" fill="#000000" fill-opacity="0.49803922" fill-rule="evenodd" stroke="none" />
      <path d="M567.454 308.276L586.493 217.283C586.493 217.283 637.482 216.644 650.833 236.952C664.186 257.26 661.157 290.062 661.157 290.062L774.495 278.095L767.147 307.212L633.793 336.271L611.262 296.179L567.454 308.276Z" id="Rectangle-5-Copy-11" fill="#000000" fill-opacity="0.49803922" fill-rule="evenodd" stroke="none" />
      <path d="M541.525 260.228L662.529 228.541C662.529 228.541 641.6 296.765 629.132 317.622C616.665 338.479 609.5 368.446 609.5 368.446L618.094 476.952L593.358 479.389L569.001 398.416L571.646 294.152L541.525 260.228Z" id="Rectangle-5-Copy-8" fill="#000000" fill-opacity="0.49803922" fill-rule="evenodd" stroke="none" />
      <path d="M544.603 263.473L659.159 213.248C659.159 213.248 649.161 283.906 640.11 306.456C631.059 329.007 628.67 359.725 628.67 359.725L654.132 465.552L630.082 471.829L593.357 395.662L579.66 292.268L544.603 263.473Z" id="Rectangle-5-Copy-9" fill="#000000" fill-opacity="0.49803922" fill-rule="evenodd" stroke="none" />
      <path d="M194.806 310.895L271.055 257.166C271.055 257.166 308.724 291.31 304.559 315.25C300.393 339.189 267.34 366.202 267.34 366.202L359.563 440.788L337.115 450.78L219.552 373.77L235.083 331.771L194.806 310.895Z" id="Rectangle-5-Copy-2" fill="#000000" fill-opacity="0.49803922" fill-rule="evenodd" stroke="none" />
      <path d="M171.824 227L215.52 267.062C215.52 267.062 216.912 332.312 193.472 339.12C170.029 345.927 128.583 339.363 128.583 339.363L104.106 443.55L85.2754 427.869C85.2754 427.869 100.579 320.915 108.427 304.579C116.273 288.244 142.037 313.523 146.38 303.678C150.724 293.834 171.824 227 171.824 227Z" id="Rectangle-5-Copy-3" fill="#000000" fill-opacity="0.49803922" fill-rule="evenodd" stroke="none" />
      <path d="M151.279 226.946L214.177 268.091C214.177 268.091 227.996 331.876 206.284 343.032C184.572 354.188 142.634 355.652 142.634 355.652L138.486 462.595L117.01 450.795C117.01 450.795 111.625 342.886 116.211 325.353C120.797 307.821 150.911 327.72 153.296 317.227C155.681 306.735 151.279 226.946 151.279 226.946Z" id="Rectangle-5-Copy-5" fill="#000000" fill-opacity="0.49803922" fill-rule="evenodd" stroke="none" />
      <path d="M152.916 241.445L220.36 274.617C220.36 274.617 241.849 336.243 221.658 349.962C201.466 363.68 160.021 370.244 160.021 370.244L168.937 476.896L146.182 467.801C146.182 467.801 127.687 361.353 130.101 343.392C132.517 325.431 164.831 341.512 165.919 330.807C167.008 320.102 152.916 241.445 152.916 241.445Z" id="Rectangle-5-Copy-6" fill="#000000" fill-opacity="0.49803922" fill-rule="evenodd" stroke="none" />
    </g>
    <path d="M51 554.095L973 554.095" id="Line-Copy" fill="none" fill-rule="evenodd" stroke="#000000" stroke-width="7" stroke-linecap="round" clip-path="url(#clip_1)" />
    <g id="ARGO" clip-path="url(#clip_2)" transform="translate(142 554)">
      <g transform="translate(56.225433, 45.6)" id="ARGO">
        <path d="M153.835 173.054L95.0797 17.1456C94.7537 16.2815 93.9283 15.7092 93.0049 15.7092L58.4173 15.7092C57.3731 15.7092 56.4406 16.3544 56.0712 17.3326L-2.60688 173.052C-3.0948 174.347 -2.13948 175.729 -0.755521 175.729L39.0191 175.729C39.8695 175.729 40.6219 175.186 40.8887 174.377L49.3087 148.845C49.58 148.022 50.3461 147.468 51.2102 147.468L100.03 147.468C100.882 147.468 101.642 148.018 101.908 148.829L110.233 174.071C110.561 175.061 111.484 175.729 112.529 175.729L151.984 175.729C153.366 175.729 154.321 174.347 153.835 173.054ZM87.9137 114.803L63.2441 114.803C61.908 114.803 60.9618 113.496 61.3813 112.226L73.6865 74.9071C74.2998 73.0535 76.9218 73.0535 77.5351 74.9071L89.8198 112.162C90.2484 113.464 89.2817 114.803 87.9137 114.803ZM255.17 119.889C254.782 119 255.113 117.965 255.945 117.463C258.635 115.84 261.267 113.897 264.228 111.346C274.112 102.741 280.751 85.8557 280.751 69.3371C280.751 52.2804 274.037 36.8083 262.329 26.8903C253.786 19.6764 242.764 15.2076 214.285 15.2076L165.023 15.2076C163.956 15.2076 163.092 16.074 163.092 17.1365L163.092 172.927C163.092 173.994 163.956 174.858 165.023 174.858L201.809 174.858C202.873 174.858 203.735 173.994 203.735 172.927L203.735 127.112C203.735 126.048 204.602 125.186 205.666 125.186L212.062 125.186C212.828 125.186 213.521 125.639 213.829 126.339L234.711 174.192C235.019 174.897 235.712 175.35 236.478 175.35L276.424 175.35C277.815 175.35 278.75 173.923 278.193 172.648L255.17 119.889ZM232.707 86.1225C227.573 88.4366 221.351 88.4366 217.634 88.4366L205.669 88.4366C204.602 88.4366 203.738 87.5702 203.738 86.5055L203.738 53.8855C203.738 52.8208 204.602 51.9566 205.669 51.9566L216.166 51.9566C220.459 51.9566 226.946 51.9566 232.295 54.2686C238.676 57.0342 241.779 62.1733 241.779 69.9778C241.779 75.4794 240.204 82.7458 232.707 86.1225ZM452.095 87.3628C451.997 86.3162 451.117 85.5205 450.066 85.5205L366.554 85.5205C365.446 85.5205 364.55 86.4166 364.545 87.5224L364.481 118.15C364.479 119.265 365.382 120.172 366.499 120.172L404.81 120.172C406.397 120.172 407.306 121.978 406.362 123.252C397.787 134.823 384.748 141.463 370.585 141.463C345.844 141.463 325.714 120.89 325.714 95.6004C325.714 70.3129 345.844 49.7382 370.585 49.7382C383.524 49.7382 395.895 55.5431 404.372 65.436C405.049 66.2226 406.228 66.332 407.058 65.7141L433.371 46.0605C434.607 45.1372 434.817 43.3793 433.85 42.18C426.798 33.4499 418.013 26.1767 408.218 20.9851C396.515 14.7858 383.854 11.6417 370.585 11.6417C325.359 11.6417 288.564 49.305 288.564 95.6004C288.564 141.896 325.359 179.561 370.585 179.561C383.854 179.561 396.515 176.417 408.218 170.218C419.388 164.299 429.242 155.672 436.712 145.27C442.241 137.571 446.406 129.05 449.099 119.939C451.424 112.069 452.603 103.879 452.603 95.6004C452.603 93.1722 452.302 89.5379 452.095 87.3628ZM540.745 11.2153C495.519 11.2153 458.724 48.8786 458.724 95.174C458.724 141.469 495.519 179.133 540.745 179.133C585.969 179.133 622.763 141.469 622.763 95.174C622.763 48.8786 585.969 11.2153 540.745 11.2153ZM540.745 141.036C516.004 141.036 495.874 120.464 495.874 95.174C495.874 69.8866 516.004 49.3118 540.745 49.3118C565.483 49.3118 585.615 69.8866 585.615 95.174C585.615 120.464 565.483 141.036 540.745 141.036Z" />
      </g>
    </g>
  </g>
</svg>